<svg width="172" height="176" viewBox="0 0 172 176" fill="none" xmlns="http://www.w3.org/2000/svg">
    <path d="M136.167 161.333H35.8333C27.9173 161.333 21.5 154.767 21.5 146.666V43.9998C21.5 35.8997 27.9173 29.3332 35.8333 29.3332H50.1667V14.6665H64.5V29.3332H107.5V14.6665H121.833V29.3332H136.167C144.083 29.3332 150.5 35.8997 150.5 43.9998V146.666C150.5 154.767 144.083 161.333 136.167 161.333ZM35.8333 73.3332V146.666H136.167V73.3332H35.8333ZM35.8333 43.9998V58.6665H136.167V43.9998H35.8333ZM78.8333 135.036L52.2665 107.851L62.4002 97.4818L78.8333 114.297L109.6 82.8152L119.733 93.1845L78.8333 135.028V135.036Z" fill="#FF7332"/>
</svg>
