<svg width="130" height="148" viewBox="0 0 130 148" fill="none" xmlns="http://www.w3.org/2000/svg">
<path d="M115.167 147.333H14.8333C6.91725 147.333 0.5 140.767 0.5 132.667V30C0.5 21.8998 6.91725 15.3333 14.8333 15.3333H29.1667V0.666626H43.5V15.3333H86.5V0.666626H100.833V15.3333H115.167C123.083 15.3333 129.5 21.8998 129.5 30V132.667C129.5 140.767 123.083 147.333 115.167 147.333ZM14.8333 59.3333V132.667H115.167V59.3333H14.8333ZM14.8333 30V44.6666H115.167V30H14.8333ZM57.8333 121.036L31.2665 93.8513L41.4002 83.482L57.8333 100.297L88.5998 68.8153L98.7335 79.1846L57.8333 121.029V121.036Z" fill="#FF7332"/>
</svg>
