<svg width="35" height="34" viewBox="0 0 35 34" fill="none" xmlns="http://www.w3.org/2000/svg">
<path fill-rule="evenodd" clip-rule="evenodd" d="M17.5 0C7.8225 0 0 7.599 0 17C0 26.401 7.8225 34 17.5 34C27.1775 34 35 26.401 35 17C35 7.599 27.1775 0 17.5 0ZM17.5 30.6C9.7825 30.6 3.5 24.497 3.5 17C3.5 9.503 9.7825 3.4 17.5 3.4C25.2175 3.4 31.5 9.503 31.5 17C31.5 24.497 25.2175 30.6 17.5 30.6ZM17.5 14.603L23.7825 8.5L26.25 10.897L19.9675 17L26.25 23.103L23.7825 25.5L17.5 19.397L11.2175 25.5L8.75 23.103L15.0325 17L8.75 10.897L11.2175 8.5L17.5 14.603Z" fill="black"/>
</svg>
