<svg width="118" height="118" viewBox="0 0 118 118" fill="none" xmlns="http://www.w3.org/2000/svg">
<g clip-path="url(#clip0_450_3964)">
<path d="M36.0379 87.5051C33.1933 85.2126 32.9017 80.8256 35.3832 77.6543L45.7348 85.9049C45.1333 86.6723 44.3995 87.3241 43.5758 87.8225C41.5282 88.9979 39.1435 89.1451 37.1666 88.2181L37.1536 88.2078L37.12 88.181L37.0941 88.1603L37.0656 88.1376L37.0475 88.1232C36.6901 87.9512 36.3521 87.7443 36.0379 87.5051ZM63.5615 95.449L22.1552 62.4466L26.7022 56.7417L34.1515 58.0146L46.6557 42.3263C49.727 38.1932 53.7344 34.8571 58.2773 32.6514C62.6062 30.698 67.3741 30.661 71.3757 32.5497L76.3319 26.3314L86.6835 34.582L81.7273 40.8003C87.0055 47.8712 85.5812 57.2031 77.7104 67.0782L65.2062 82.7665L68.1085 89.7442L63.5615 95.449ZM89.1211 73.8407L83.9453 69.7154C89.5838 62.1466 91.8442 52.7098 90.1092 43.9826L97.0351 42.8326C98.0149 47.9538 97.8046 53.3492 96.4205 58.6032C94.9852 64.0409 92.5013 69.226 89.1211 73.8407ZM42.6166 36.7748L37.4408 32.6495C41.1853 28.3251 45.6858 24.7473 50.6665 22.1354C55.4794 19.6143 60.692 18.206 65.9027 18.0189L66.3264 25.0268C57.432 25.281 48.7366 29.5895 42.6166 36.7748Z" fill="#FD7332"/>
</g>
<ellipse cx="87.3756" cy="80.5" rx="18.3756" ry="18.5" fill="#FF0000"/>
<path d="M87.9609 91.2983C86.37 91.2983 84.9567 91.0107 83.7209 90.4354C82.4851 89.8601 81.5085 89.0682 80.7912 88.0597C80.081 87.0512 79.7116 85.8935 79.6832 84.5867L84.7969 84.5867C84.8395 85.3892 85.1662 86.0355 85.777 86.5256C86.3878 87.0085 87.1158 87.25 87.9609 87.25C88.6214 87.25 89.2074 87.1044 89.7187 86.8132C90.2301 86.522 90.6314 86.1137 90.9226 85.5881C91.2138 85.0554 91.3558 84.4446 91.3487 83.7557C91.3558 83.0526 91.2102 82.4382 90.9119 81.9127C90.6207 81.3871 90.2159 80.9787 89.6974 80.6875C89.1861 80.3892 88.5966 80.2401 87.929 80.2401C87.2969 80.233 86.6967 80.3715 86.1285 80.6556C85.5675 80.9397 85.1413 81.3267 84.8501 81.8168L80.1946 80.9432L81.1428 69.1818L95.1413 69.1818L95.1413 73.4325L85.4787 73.4325L84.978 78.5781L85.1058 78.5781C85.468 77.9744 86.0504 77.4773 86.853 77.0867C87.6626 76.6889 88.5824 76.4901 89.6122 76.4901C90.919 76.4901 92.0838 76.7955 93.1065 77.4063C94.1363 78.01 94.946 78.848 95.5355 79.9205C96.1321 80.9929 96.4304 82.2216 96.4304 83.6066C96.4304 85.1051 96.0753 86.4333 95.365 87.5909C94.6619 88.7486 93.6747 89.6577 92.4034 90.3182C91.1392 90.9716 89.6584 91.2983 87.9609 91.2983Z" fill="white"/>
<defs>
<clipPath id="clip0_450_3964">
<rect width="79.4242" height="87.5426" fill="white" transform="translate(55) rotate(38.5563)"/>
</clipPath>
</defs>
</svg>
