<svg width="35" height="35" viewBox="0 0 35 35" fill="none" xmlns="http://www.w3.org/2000/svg">
<path fill-rule="evenodd" clip-rule="evenodd" d="M10 3.75C10 1.67875 11.6788 0 13.75 0H21.25C23.3212 0 25 1.67875 25 3.75V5H33.75C34.44 5 35 5.56 35 6.25C35 6.94 34.44 7.5 33.75 7.5H31.25V28.75C31.25 32.2012 28.4513 35 25 35H10C6.54875 35 3.75 32.2012 3.75 28.75V7.5H1.25C0.56 7.5 0 6.94 0 6.25C0 5.56 0.56 5 1.25 5H10V3.75ZM12.5 5H22.5V3.75C22.5 3.06 21.94 2.5 21.25 2.5H13.75C13.06 2.5 12.5 3.06 12.5 3.75V5ZM6.25 7.5V28.75C6.25 30.8212 7.92875 32.5 10 32.5H25C27.0712 32.5 28.75 30.8212 28.75 28.75V7.5H6.25ZM17.5 11.25C18.19 11.25 18.75 11.81 18.75 12.5V27.5C18.75 28.19 18.19 28.75 17.5 28.75C16.81 28.75 16.25 28.19 16.25 27.5V12.5C16.25 11.81 16.81 11.25 17.5 11.25Z" fill="#FF7332"/>
</svg>
