<svg width="38" height="29" viewBox="0 0 38 29" fill="none" xmlns="http://www.w3.org/2000/svg">
<path fill-rule="evenodd" clip-rule="evenodd" d="M4.30467 13.627C4.30467 13.9514 4.07507 14.2509 3.84546 14.5005C4.07507 14.75 4.30467 15.0246 4.30467 15.349C4.9935 16.4221 5.91192 17.8447 7.05996 19.2672C9.58564 22.0874 13.489 24.8576 18.9995 24.8576C24.5101 24.8576 28.1838 22.0874 30.7095 19.2672C32.0872 17.8447 33.0056 16.4221 33.4648 15.349C33.6944 15.0246 33.924 14.75 33.924 14.5005C33.924 14.2509 33.6944 13.9514 33.4648 13.627C33.0056 12.5538 32.0872 11.1313 30.7095 9.70872C28.1838 6.88858 24.5101 4.14331 18.9995 4.14331C13.489 4.14331 9.58564 6.88858 7.05996 9.70872C5.91192 11.1313 4.9935 12.5538 4.30467 13.627ZM37.8278 15.3236C37.8278 15.2986 37.8278 15.2986 36.2205 14.5L37.8278 15.2986C38.0574 14.7995 38.0574 14.2005 37.8278 13.6764L36.2205 14.5C37.8278 13.6764 37.8278 13.6764 37.8278 13.6764V13.6515V13.6265C37.8278 13.5766 37.8278 13.5267 37.8278 13.4768C37.8278 13.3769 37.5982 13.2272 37.5982 13.0275C37.3686 12.6532 37.139 12.1041 36.6798 11.4802C35.9909 10.2074 35.0725 8.53528 33.4653 6.83821C30.4804 3.44406 25.6586 0 19 0C12.1118 0 7.51964 3.44406 4.53474 6.83821C2.92749 8.53528 1.77946 10.2074 1.09063 11.4802C0.861027 12.1041 0.63142 12.6532 0.401813 13.0275C0.172205 13.2272 0.172205 13.3769 0.172205 13.4768C0.172205 13.5267 0.172205 13.5766 0.172205 13.6265V13.6515V13.6764C0.172205 13.6764 0.172205 13.6764 1.77946 14.5L0.172205 13.6764C-0.0574018 14.2005 -0.0574018 14.7995 0.172205 15.2986L1.77946 14.5C0.172205 15.2986 0.172205 15.2986 0.172205 15.3236V15.3735C0.172205 15.3984 0.172205 15.4484 0.172205 15.4983C0.172205 15.6231 0.172205 15.7728 0.401813 15.9725C0.63142 16.3468 0.861027 16.8709 1.09063 17.5198C1.77946 18.7676 2.92749 20.4647 4.53474 22.1368C7.51964 25.531 12.1118 29 19 29C25.6586 29 30.4804 25.531 33.4653 22.1368C35.0725 20.4647 35.9909 18.7676 36.6798 17.5198C37.139 16.8709 37.3686 16.3468 37.5982 15.9725C37.5982 15.7728 37.8278 15.6231 37.8278 15.4983C37.8278 15.4484 37.8278 15.3984 37.8278 15.3735V15.3236ZM19.0003 18.6429C16.9339 18.6429 15.097 16.7711 15.097 14.5C15.097 12.204 16.9339 10.3572 19.0003 10.3572C21.0668 10.3572 22.6741 12.204 22.6741 14.5C22.6741 16.7711 21.0668 18.6429 19.0003 18.6429ZM11.4223 14.5001C11.4223 9.90799 14.8664 6.21436 18.9993 6.21436C23.1322 6.21436 26.5763 9.90799 26.5763 14.5001C26.5763 19.0672 23.1322 22.7858 18.9993 22.7858C14.8664 22.7858 11.4223 19.0672 11.4223 14.5001Z" fill="#FF7332"/>
</svg>
