<svg width="40" height="46" viewBox="0 0 40 46" fill="none" xmlns="http://www.w3.org/2000/svg">
<path d="M22.412 40.0682C22.9767 39.747 23.3333 39.0906 23.3333 38.3725V28.1748C23.3333 27.672 23.5089 27.1898 23.8215 26.8342L34.0233 15.2294C34.6483 14.5184 35 13.5534 35 12.5467V7.64587C35 6.59746 34.255 5.75 33.3333 5.75H6.66667C5.745 5.75 5 6.59746 5 7.64587V12.5467C5 13.5534 5.35167 14.5184 5.97667 15.2294L16.1785 26.8342C16.4911 27.1898 16.6667 27.672 16.6667 28.1748V40.2683C16.6667 41.6777 17.9705 42.5944 19.0787 41.9641L22.412 40.0682Z" fill="white"/>
</svg>
