<svg width="126" height="118" viewBox="0 0 126 118" fill="none" xmlns="http://www.w3.org/2000/svg">
<g clip-path="url(#clip0_1022_4084)">
<path d="M35.6018 87.505C32.7572 85.2125 32.4657 80.8256 34.9472 77.6542L45.2987 85.9048C44.6973 86.6722 43.9635 87.324 43.1398 87.8224C41.0922 88.9978 38.7074 89.145 36.7305 88.218L36.7176 88.2077L36.6839 88.1809L36.6581 88.1603L36.6296 88.1376L36.6115 88.1231C36.254 87.9512 35.9161 87.7443 35.6018 87.505ZM63.1255 95.449L21.7192 62.4465L26.2662 56.7417L33.7154 58.0146L46.2196 42.3263C49.2909 38.1932 53.2984 34.857 57.8412 32.6513C62.1702 30.698 66.938 30.6609 70.9397 32.5496L75.8959 26.3313L86.2475 34.5819L81.2913 40.8002C86.5695 47.8712 85.1452 57.203 77.2744 67.0781L64.7702 82.7664L67.6725 89.7441L63.1255 95.449ZM88.685 73.8406L83.5093 69.7153C89.1477 62.1466 91.4082 52.7097 89.6731 43.9826L96.599 42.8326C97.5789 47.9537 97.3686 53.3491 95.9845 58.6031C94.5492 64.0408 92.0653 69.2259 88.685 73.8406ZM42.1806 36.7747L37.0048 32.6494C40.7493 28.325 45.2498 24.7472 50.2305 22.1353C55.0434 19.6142 60.256 18.2059 65.4667 18.0188L65.8904 25.0267C56.996 25.2809 48.3006 29.5894 42.1806 36.7747Z" fill="#373A36"/>
</g>
<path d="M125.751 86.5C125.751 96.7173 117.524 105 107.376 105C97.227 105 89 96.7173 89 86.5C89 76.2827 97.227 68 107.376 68C117.524 68 125.751 76.2827 125.751 86.5Z" fill="#FF0000"/>
<path d="M125.751 86.5C125.751 96.7173 117.524 105 107.376 105C97.227 105 89 96.7173 89 86.5C89 76.2827 97.227 68 107.376 68C117.524 68 125.751 76.2827 125.751 86.5Z" fill="#FF0000"/>
<defs>
<clipPath id="clip0_1022_4084">
<rect width="79.4242" height="87.5426" fill="white" transform="translate(54.564) rotate(38.5563)"/>
</clipPath>
</defs>
</svg>
