<svg width="111" height="116" viewBox="0 0 111 116" fill="none" xmlns="http://www.w3.org/2000/svg">
<path d="M4 50.3988C4 39.3531 12.9543 30.3988 24 30.3988H87C98.0457 30.3988 107 39.3531 107 50.3988V88C107 99.0457 98.0457 108 87 108H24C12.9543 108 4 99.0457 4 88V50.3988Z" fill="#735A73"/>
<g filter="url(#filter0_d_41_273)">
<rect x="4" y="30.3988" width="47.2787" height="35.9146" fill="#F5A01E"/>
<rect x="59.7213" y="30.3988" width="47.2787" height="35.9146" fill="#F5A01E"/>
<rect x="59.7213" y="72.0854" width="47.2787" height="35.9146" fill="#F5A01E"/>
<rect x="4" y="72.0854" width="47.2787" height="35.9146" fill="#F5A01E"/>
</g>
<g filter="url(#filter1_d_41_273)">
<path d="M55.9222 31.3607C46.9167 29.2229 10.6697 27.3203 12.0205 21.4201C13.3714 15.5198 21.7296 -5.19522 30.5943 1.2181L55.9222 31.3607L82.9386 1.2181C94.7583 1.21808 99.7394 16.0329 97.7132 21.4201C95.687 26.8073 65.2091 29.0092 55.9222 31.3607Z" fill="#735A73"/>
</g>
<g filter="url(#filter2_i_41_273)">
<path d="M55.7889 30.3988C48.2891 29.0872 18.1024 27.92 19.2274 24.3001C20.3523 20.6803 27.3131 7.9715 34.6957 11.9061L55.7889 30.3988L78.2883 11.9061C88.1318 11.9061 92.2801 20.9951 90.5926 24.3001C88.9052 27.6052 63.5231 28.9561 55.7889 30.3988Z" fill="white"/>
</g>
<defs>
<filter id="filter0_d_41_273" x="0" y="30.3988" width="111" height="85.6012" filterUnits="userSpaceOnUse" color-interpolation-filters="sRGB">
<feFlood flood-opacity="0" result="BackgroundImageFix"/>
<feColorMatrix in="SourceAlpha" type="matrix" values="0 0 0 0 0 0 0 0 0 0 0 0 0 0 0 0 0 0 127 0" result="hardAlpha"/>
<feOffset dy="4"/>
<feGaussianBlur stdDeviation="2"/>
<feComposite in2="hardAlpha" operator="out"/>
<feColorMatrix type="matrix" values="0 0 0 0 0 0 0 0 0 0 0 0 0 0 0 0 0 0 0.25 0"/>
<feBlend mode="normal" in2="BackgroundImageFix" result="effect1_dropShadow_41_273"/>
<feBlend mode="normal" in="SourceGraphic" in2="effect1_dropShadow_41_273" result="shape"/>
</filter>
<filter id="filter1_d_41_273" x="7.98376" y="0" width="94.1694" height="39.3607" filterUnits="userSpaceOnUse" color-interpolation-filters="sRGB">
<feFlood flood-opacity="0" result="BackgroundImageFix"/>
<feColorMatrix in="SourceAlpha" type="matrix" values="0 0 0 0 0 0 0 0 0 0 0 0 0 0 0 0 0 0 127 0" result="hardAlpha"/>
<feOffset dy="4"/>
<feGaussianBlur stdDeviation="2"/>
<feComposite in2="hardAlpha" operator="out"/>
<feColorMatrix type="matrix" values="0 0 0 0 0 0 0 0 0 0 0 0 0 0 0 0 0 0 0.25 0"/>
<feBlend mode="normal" in2="BackgroundImageFix" result="effect1_dropShadow_41_273"/>
<feBlend mode="normal" in="SourceGraphic" in2="effect1_dropShadow_41_273" result="shape"/>
</filter>
<filter id="filter2_i_41_273" x="19.1967" y="11.1588" width="71.7623" height="23.24" filterUnits="userSpaceOnUse" color-interpolation-filters="sRGB">
<feFlood flood-opacity="0" result="BackgroundImageFix"/>
<feBlend mode="normal" in="SourceGraphic" in2="BackgroundImageFix" result="shape"/>
<feColorMatrix in="SourceAlpha" type="matrix" values="0 0 0 0 0 0 0 0 0 0 0 0 0 0 0 0 0 0 127 0" result="hardAlpha"/>
<feOffset dy="4"/>
<feGaussianBlur stdDeviation="2"/>
<feComposite in2="hardAlpha" operator="arithmetic" k2="-1" k3="1"/>
<feColorMatrix type="matrix" values="0 0 0 0 0 0 0 0 0 0 0 0 0 0 0 0 0 0 0.25 0"/>
<feBlend mode="normal" in2="shape" result="effect1_innerShadow_41_273"/>
</filter>
</defs>
</svg>
