<svg width="123" height="133" viewBox="0 0 123 133" fill="none" xmlns="http://www.w3.org/2000/svg">
<path d="M107.624 133H15.3748C6.88353 133 0 127.045 0 119.7V13.3C0 5.95461 6.88353 0 15.3748 0H69.1866C69.2704 0.00314092 69.3532 0.0165755 69.4326 0.0399C69.5077 0.0599647 69.585 0.0733342 69.6632 0.0798C70.3411 0.117394 71.0105 0.231408 71.6543 0.41895L71.8695 0.4788C72.0437 0.529885 72.2133 0.592124 72.3769 0.665C73.2144 0.987017 73.9775 1.43763 74.6293 1.995L120.754 41.895C121.398 42.4588 121.919 43.119 122.291 43.8434C122.368 43.9897 122.422 44.1427 122.483 44.2957L122.553 44.4685C122.767 45.0231 122.894 45.6003 122.929 46.1842C122.941 46.2453 122.959 46.3054 122.983 46.3638C122.997 46.4251 123.002 46.4876 122.999 46.55V119.7C122.999 127.045 116.115 133 107.624 133ZM15.3748 13.3V119.7H107.624V53.2H69.1866C64.941 53.2 61.4992 50.2227 61.4992 46.55V13.3H15.3748ZM76.874 22.7031V39.9H96.7536L76.874 22.7031Z" fill="#FD7332"/>
</svg>
