<svg width="35" height="28" viewBox="0 0 35 28" fill="none" xmlns="http://www.w3.org/2000/svg">
<path fill-rule="evenodd" clip-rule="evenodd" d="M10 3.75909C10 2.19065 11.6788 0.919434 13.75 0.919434H21.25C23.3212 0.919434 25 2.19065 25 3.75909V4.70564H33.75C34.44 4.70564 35 5.12969 35 5.65219C35 6.17468 34.44 6.59874 33.75 6.59874H31.25V22.6901C31.25 25.3035 28.4513 27.4229 25 27.4229H10C6.54875 27.4229 3.75 25.3035 3.75 22.6901V6.59874H1.25C0.56 6.59874 0 6.17468 0 5.65219C0 5.12969 0.56 4.70564 1.25 4.70564H10V3.75909ZM12.5 4.70564H22.5V3.75909C22.5 3.23659 21.94 2.81254 21.25 2.81254H13.75C13.06 2.81254 12.5 3.23659 12.5 3.75909V4.70564ZM6.25 6.59874V22.6901C6.25 24.2585 7.92875 25.5298 10 25.5298H25C27.0712 25.5298 28.75 24.2585 28.75 22.6901V6.59874H6.25ZM17.5 9.43839C18.19 9.43839 18.75 9.86244 18.75 10.3849V21.7435C18.75 22.266 18.19 22.6901 17.5 22.6901C16.81 22.6901 16.25 22.266 16.25 21.7435V10.3849C16.25 9.86244 16.81 9.43839 17.5 9.43839Z" fill="#FF7332"/>
</svg>
