<svg width="88" height="85" viewBox="0 0 88 85" fill="none" xmlns="http://www.w3.org/2000/svg">
<path d="M36.6667 58.4375L58.6667 42.5L36.6667 26.5625V58.4375ZM44 7.08337C23.76 7.08337 7.33337 22.95 7.33337 42.5C7.33337 62.05 23.76 77.9167 44 77.9167C64.24 77.9167 80.6667 62.05 80.6667 42.5C80.6667 22.95 64.24 7.08337 44 7.08337ZM44 70.8334C27.83 70.8334 14.6667 58.1188 14.6667 42.5C14.6667 26.8813 27.83 14.1667 44 14.1667C60.17 14.1667 73.3334 26.8813 73.3334 42.5C73.3334 58.1188 60.17 70.8334 44 70.8334Z" fill="black"/>
</svg>
