<svg width="50" height="69" viewBox="0 0 71 79" fill="none" xmlns="http://www.w3.org/2000/svg">
<path d="M19.4583 0.541626C21.2302 0.541626 22.6666 2.12728 22.6666 4.08329V7.62496H48.3332V4.08329C48.3332 2.12728 49.7697 0.541626 51.5416 0.541626C53.3135 0.541626 54.7499 2.12728 54.7499 4.08329V7.62496H61.1666C66.4823 7.62496 70.7916 12.3819 70.7916 18.25V67.8333C70.7916 73.7013 66.4823 78.4583 61.1666 78.4583H9.83325C4.51751 78.4583 0.208252 73.7013 0.208252 67.8333V18.25C0.208252 12.3819 4.51751 7.62496 9.83325 7.62496H16.2499V4.08329C16.2499 2.12728 17.6863 0.541626 19.4583 0.541626ZM16.2499 14.7083H9.83325C8.06134 14.7083 6.62492 16.294 6.62492 18.25V28.875H64.3749V18.25C64.3749 16.294 62.9385 14.7083 61.1666 14.7083H54.7499V18.25C54.7499 20.206 53.3135 21.7916 51.5416 21.7916C49.7697 21.7916 48.3332 20.206 48.3332 18.25V14.7083H22.6666V18.25C22.6666 20.206 21.2302 21.7916 19.4583 21.7916C17.6863 21.7916 16.2499 20.206 16.2499 18.25V14.7083ZM64.3749 35.9583H6.62492V67.8333C6.62492 69.7893 8.06134 71.375 9.83325 71.375H61.1666C62.9385 71.375 64.3749 69.7893 64.3749 67.8333V35.9583Z" fill="black"/>
</svg>
