<svg width="82" height="81" viewBox="0 0 82 81" fill="none" xmlns="http://www.w3.org/2000/svg">
<path d="M40.9999 76.7812C20.7391 76.7812 4.27075 60.5137 4.27075 40.5C4.27075 20.4862 20.7391 4.21875 40.9999 4.21875C61.2608 4.21875 77.7291 20.4862 77.7291 40.5C77.7291 60.5137 61.2608 76.7812 40.9999 76.7812ZM40.9999 9.28125C23.5749 9.28125 9.39575 23.2875 9.39575 40.5C9.39575 57.7125 23.5749 71.7188 40.9999 71.7188C58.4249 71.7188 72.6041 57.7125 72.6041 40.5C72.6041 23.2875 58.4249 9.28125 40.9999 9.28125Z" fill="black"/>
<path d="M53.6754 53.7639C53.2312 53.7639 52.787 53.6627 52.377 53.3927L41.7854 47.1489C39.1545 45.5964 37.207 42.1877 37.207 39.1839V25.3464C37.207 23.9627 38.3687 22.8152 39.7695 22.8152C41.1704 22.8152 42.332 23.9627 42.332 25.3464V39.1839C42.332 40.3989 43.357 42.1877 44.4162 42.7952L55.0079 49.0389C56.2379 49.7477 56.6137 51.3002 55.8962 52.5152C55.3837 53.3252 54.5295 53.7639 53.6754 53.7639Z" fill="black"/>
</svg>
