<svg width="85" height="85" viewBox="0 0 85 85" fill="none" xmlns="http://www.w3.org/2000/svg">
<path d="M42.4999 80.7855C40.0562 80.7855 37.7541 79.5459 36.1249 77.3855L30.8124 70.3021C30.7062 70.1605 30.2812 69.9834 30.1041 69.948H28.3333C13.5645 69.948 4.427 65.9459 4.427 46.0417V28.3334C4.427 12.6792 12.6791 4.42712 28.3333 4.42712H56.6666C72.3207 4.42712 80.5728 12.6792 80.5728 28.3334V46.0417C80.5728 61.6959 72.3207 69.948 56.6666 69.948H54.8957C54.6124 69.948 54.3645 70.0896 54.1874 70.3021L48.8749 77.3855C47.2458 79.5459 44.9437 80.7855 42.4999 80.7855ZM28.3333 9.73962C15.6541 9.73962 9.7395 15.6542 9.7395 28.3334V46.0417C9.7395 62.05 15.2291 64.6355 28.3333 64.6355H30.1041C31.9103 64.6355 33.9645 65.6625 35.0624 67.1146L40.3749 74.198C41.6145 75.8271 43.3853 75.8271 44.6249 74.198L49.9374 67.1146C51.1062 65.5563 52.9478 64.6355 54.8957 64.6355H56.6666C69.3457 64.6355 75.2603 58.7209 75.2603 46.0417V28.3334C75.2603 15.6542 69.3457 9.73962 56.6666 9.73962H28.3333Z" fill="black"/>
<path d="M42.4999 42.5C40.5166 42.5 38.9583 40.9062 38.9583 38.9583C38.9583 37.0104 40.552 35.4166 42.4999 35.4166C44.4478 35.4166 46.0416 37.0104 46.0416 38.9583C46.0416 40.9062 44.4833 42.5 42.4999 42.5Z" fill="black"/>
<path d="M56.6667 42.5C54.6833 42.5 53.125 40.9062 53.125 38.9583C53.125 37.0104 54.7187 35.4166 56.6667 35.4166C58.6146 35.4166 60.2083 37.0104 60.2083 38.9583C60.2083 40.9062 58.65 42.5 56.6667 42.5Z" fill="black"/>
<path d="M28.3334 42.5C26.3501 42.5 24.7917 40.9062 24.7917 38.9583C24.7917 37.0104 26.3855 35.4166 28.3334 35.4166C30.2813 35.4166 31.8751 37.0104 31.8751 38.9583C31.8751 40.9062 30.3167 42.5 28.3334 42.5Z" fill="black"/>
</svg>
