<svg width="75" height="85" viewBox="0 0 81 85" fill="none" xmlns="http://www.w3.org/2000/svg">
<path d="M67.5 52.2397C62.37 52.2397 58.2188 47.8834 58.2188 42.5001C58.2188 37.1167 62.37 32.7605 67.5 32.7605C72.63 32.7605 76.7812 37.1167 76.7812 42.5001C76.7812 47.8834 72.63 52.2397 67.5 52.2397ZM67.5 38.073C65.1712 38.073 63.2812 40.0563 63.2812 42.5001C63.2812 44.9438 65.1712 46.9272 67.5 46.9272C69.8287 46.9272 71.7188 44.9438 71.7188 42.5001C71.7188 40.0563 69.8287 38.073 67.5 38.073Z" fill="black"/>
<path d="M67.5 23.9062C62.37 23.9062 58.2188 19.5499 58.2188 14.1666C58.2188 8.78325 62.37 4.427 67.5 4.427C72.63 4.427 76.7812 8.78325 76.7812 14.1666C76.7812 19.5499 72.63 23.9062 67.5 23.9062ZM67.5 9.7395C65.1712 9.7395 63.2812 11.7228 63.2812 14.1666C63.2812 16.6103 65.1712 18.5937 67.5 18.5937C69.8287 18.5937 71.7188 16.6103 71.7188 14.1666C71.7188 11.7228 69.8287 9.7395 67.5 9.7395Z" fill="black"/>
<path d="M67.5 80.5729C62.37 80.5729 58.2188 76.2167 58.2188 70.8333C58.2188 65.45 62.37 61.0938 67.5 61.0938C72.63 61.0938 76.7812 65.45 76.7812 70.8333C76.7812 76.2167 72.63 80.5729 67.5 80.5729ZM67.5 66.4062C65.1712 66.4062 63.2812 68.3896 63.2812 70.8333C63.2812 73.2771 65.1712 75.2604 67.5 75.2604C69.8287 75.2604 71.7188 73.2771 71.7188 70.8333C71.7188 68.3896 69.8287 66.4062 67.5 66.4062Z" fill="black"/>
<path d="M13.5 52.2397C8.37 52.2397 4.21875 47.8834 4.21875 42.5001C4.21875 37.1167 8.37 32.7605 13.5 32.7605C18.63 32.7605 22.7812 37.1167 22.7812 42.5001C22.7812 47.8834 18.63 52.2397 13.5 52.2397ZM13.5 38.073C11.1712 38.073 9.28125 40.0563 9.28125 42.5001C9.28125 44.9438 11.1712 46.9272 13.5 46.9272C15.8287 46.9272 17.7188 44.9438 17.7188 42.5001C17.7188 40.0563 15.8287 38.073 13.5 38.073Z" fill="black"/>
<path d="M60.75 45.1562H20.25C18.8663 45.1562 17.7188 43.9521 17.7188 42.5C17.7188 41.0479 18.8663 39.8438 20.25 39.8438H60.75C62.1338 39.8438 63.2812 41.0479 63.2812 42.5C63.2812 43.9521 62.1338 45.1562 60.75 45.1562Z" fill="black"/>
<path d="M60.75 73.4897H47.25C39.0825 73.4897 34.5938 68.7793 34.5938 60.2084V24.7917C34.5938 16.2209 39.0825 11.5105 47.25 11.5105H60.75C62.1338 11.5105 63.2812 12.7147 63.2812 14.1667C63.2812 15.6188 62.1338 16.823 60.75 16.823H47.25C41.9175 16.823 39.6562 19.1959 39.6562 24.7917V60.2084C39.6562 65.8042 41.9175 68.1772 47.25 68.1772H60.75C62.1338 68.1772 63.2812 69.3813 63.2812 70.8334C63.2812 72.2855 62.1338 73.4897 60.75 73.4897Z" fill="black"/>
</svg>
