<svg width="65" height="64" viewBox="0 0 89 64" fill="none" xmlns="http://www.w3.org/2000/svg">
<path d="M60.6818 27.4286C67.377 27.4286 72.7777 21.28 72.7777 13.7143C72.7777 6.14857 67.377 0 60.6818 0C53.9866 0 48.5455 6.14857 48.5455 13.7143C48.5455 21.28 53.9866 27.4286 60.6818 27.4286ZM28.3182 27.4286C35.0134 27.4286 40.4141 21.28 40.4141 13.7143C40.4141 6.14857 35.0134 0 28.3182 0C21.623 0 16.1818 6.14857 16.1818 13.7143C16.1818 21.28 21.623 27.4286 28.3182 27.4286ZM28.3182 36.5714C18.872 36.5714 0 41.92 0 52.5714V64H56.6364V52.5714C56.6364 41.92 37.7643 36.5714 28.3182 36.5714ZM60.6818 36.5714C59.5086 36.5714 58.1939 36.6629 56.778 36.8229C61.4707 40.64 64.7273 45.7829 64.7273 52.5714V64H89V52.5714C89 41.92 70.128 36.5714 60.6818 36.5714Z" fill="black"/>
</svg>
