<svg width="89" height="85" viewBox="0 0 89 85" fill="none" xmlns="http://www.w3.org/2000/svg">
<path fill-rule="evenodd" clip-rule="evenodd" d="M44.5001 7.08337C64.9806 7.08337 81.5834 22.94 81.5834 42.5C81.5834 62.0601 64.9806 77.9167 44.5001 77.9167C24.0195 77.9167 7.41675 62.0601 7.41675 42.5C7.41675 22.94 24.0195 7.08337 44.5001 7.08337ZM44.5001 14.1667C28.1156 14.1667 14.8334 26.852 14.8334 42.5C14.8334 58.1481 28.1156 70.8334 44.5001 70.8334C60.8845 70.8334 74.1667 58.1481 74.1667 42.5C74.1667 26.852 60.8845 14.1667 44.5001 14.1667ZM44.5001 21.25C46.5481 21.25 48.2084 22.8357 48.2084 24.7917V38.9584H63.0417C65.0898 38.9584 66.7501 40.544 66.7501 42.5C66.7501 44.4561 65.0898 46.0417 63.0417 46.0417H48.2084V60.2084C48.2084 62.1644 46.5481 63.75 44.5001 63.75C42.452 63.75 40.7917 62.1644 40.7917 60.2084V46.0417H25.9584C23.9104 46.0417 22.2501 44.4561 22.2501 42.5C22.2501 40.544 23.9104 38.9584 25.9584 38.9584H40.7917V24.7917C40.7917 22.8357 42.452 21.25 44.5001 21.25Z" fill="black"/>
</svg>
